Coordinates
version=1
nRows=27
nColumns=38
inDegrees=no

Units are S.I. units (second, meters, Newtons, ...)
If the header above contains a line with 'inDegrees', this indicates whether rotational values are in degrees (yes) or radians (no).

endheader
time	pelvis_tilt	pelvis_list	pelvis_rotation	pelvis_tx	pelvis_ty	pelvis_tz	hip_flexion_r	hip_adduction_r	hip_rotation_r	knee_angle_r	ankle_angle_r	subtalar_angle_r	mtp_angle_r	hip_flexion_l	hip_adduction_l	hip_rotation_l	knee_angle_l	ankle_angle_l	subtalar_angle_l	mtp_angle_l	lumbar_extension	lumbar_bending	lumbar_rotation	arm_flex_r	arm_add_r	arm_rot_r	elbow_flex_r	pro_sup_r	wrist_flex_r	wrist_dev_r	arm_flex_l	arm_add_l	arm_rot_l	elbow_flex_l	pro_sup_l	wrist_flex_l	wrist_dev_l
0.66	-0.0030801	1.42197	-1.43283	0.453521	0.808742	1.06964	-0.194841	-0.00884377	-0.127772	0.518112	-0.223739	0	0	0.198072	-0.0930051	-0.0724862	0.514752	-0.127996	0	0	-0.456196	0.0164247	0.180698	0.0595406	-0.625676	0.753753	0.91527	0.755624	0	0	0.131932	-0.349215	0.602066	0.699058	0.687686	0	0
0.67	-0.0171659	1.42814	-1.41728	0.456477	0.79903	1.06733	-0.197139	-0.00929791	-0.130674	0.521499	-0.219781	0	0	0.197904	-0.0901713	-0.0642815	0.44942	-0.134053	0	0	-0.45049	0.0183238	0.17886	0.0579528	-0.625437	0.751182	0.916099	0.757479	0	0	0.130107	-0.34947	0.599791	0.700726	0.688682	0	0
0.68	-0.0391467	1.43549	-1.39357	0.459612	0.789214	1.06471	-0.197665	-0.00933148	-0.133827	0.525851	-0.216085	0	0	0.19863	-0.0882021	-0.0560039	0.386199	-0.133488	0	0	-0.44293	0.0212143	0.177065	0.0554243	-0.625465	0.74787	0.917312	0.75847	0	0	0.127916	-0.349874	0.598421	0.702383	0.690727	0	0
0.69	-0.0647499	1.44365	-1.36622	0.462893	0.779295	1.06189	-0.196754	-0.00989646	-0.137719	0.53157	-0.211907	0	0	0.199286	-0.0862008	-0.0489583	0.323581	-0.133009	0	0	-0.433942	0.0240065	0.175437	0.052079	-0.625369	0.744186	0.918396	0.760572	0	0	0.125154	-0.349899	0.595937	0.704213	0.692505	0	0
0.7	-0.0523237	1.44318	-1.38165	0.46565	0.768643	1.0606	-0.208199	-0.0149892	-0.142212	0.532718	-0.210698	0	0	0.182547	-0.0826922	-0.0584825	0.25186	-0.143716	0	0	-0.434513	0.0212138	0.177019	0.0482852	-0.624149	0.738655	0.919468	0.766715	0	0	0.121874	-0.350434	0.590863	0.707673	0.694586	0	0
0.71	-0.049554	1.44515	-1.38658	0.468683	0.758043	1.05883	-0.215857	-0.0194294	-0.146599	0.535736	-0.210311	0	0	0.170523	-0.0793281	-0.0653745	0.187329	-0.148748	0	0	-0.432302	0.0198765	0.177994	0.043827	-0.623475	0.732815	0.921214	0.77081	0	0	0.118692	-0.351071	0.587811	0.710665	0.697076	0	0
0.72	-0.0548808	1.44857	-1.38329	0.47185	0.747376	1.05671	-0.221161	-0.0230953	-0.149775	0.540044	-0.209684	0	0	0.16098	-0.0763985	-0.0682889	0.127336	-0.152466	0	0	-0.427993	0.0195158	0.179092	0.0389309	-0.622668	0.72702	0.922401	0.773715	0	0	0.115485	-0.351556	0.586029	0.712587	0.700302	0	0
0.73	-0.0655139	1.45201	-1.37538	0.474985	0.736561	1.05448	-0.22612	-0.0260581	-0.150888	0.544563	-0.209324	0	0	0.152086	-0.0753659	-0.069655	0.0748738	-0.155826	0	0	-0.423255	0.0194379	0.181185	0.0336454	-0.621645	0.721557	0.923002	0.777031	0	0	0.111999	-0.351537	0.583891	0.713827	0.702898	0	0
0.74	-0.0798865	1.45544	-1.36412	0.478075	0.725603	1.05218	-0.230695	-0.0285619	-0.151101	0.549599	-0.209388	0	0	0.145052	-0.0760809	-0.0711034	0.0349436	-0.156511	0	0	-0.418249	0.0193617	0.18367	0.0287053	-0.620173	0.717469	0.922748	0.780132	0	0	0.108423	-0.352055	0.582752	0.714935	0.705438	0	0
0.75	-0.0937385	1.45789	-1.35381	0.481121	0.714535	1.05001	-0.236018	-0.0311593	-0.151108	0.555088	-0.210249	0	0	0.139372	-0.0772796	-0.0749416	0.0086889	-0.158053	0	0	-0.414141	0.0188073	0.186775	0.0237007	-0.618285	0.71348	0.9221	0.783787	0	0	0.105047	-0.352655	0.581485	0.715887	0.707767	0	0
0.76	-0.105788	1.45953	-1.34572	0.484124	0.703403	1.048	-0.24146	-0.0341346	-0.150672	0.561564	-0.212427	0	0	0.136272	-0.0787381	-0.0796189	0	-0.158805	0	0	-0.41093	0.0177873	0.190333	0.0188378	-0.616156	0.70956	0.921282	0.787473	0	0	0.102034	-0.353701	0.58094	0.716951	0.710614	0	0
0.77	-0.114037	1.46067	-1.34174	0.487185	0.692175	1.04612	-0.246939	-0.0377071	-0.148955	0.56875	-0.215899	0	0	0.135992	-0.0798052	-0.0832269	0.00644319	-0.157791	0	0	-0.40828	0.0162896	0.194123	0.0140245	-0.613851	0.705369	0.920348	0.790814	0	0	0.0988365	-0.354683	0.57982	0.718243	0.712063	0	0
0.78	-0.117834	1.46147	-1.34249	0.490328	0.680837	1.04438	-0.252232	-0.0420382	-0.146143	0.576823	-0.221181	0	0	0.138014	-0.0804204	-0.0850173	0.0295856	-0.152411	0	0	-0.406041	0.0142279	0.198003	0.00883209	-0.611224	0.700031	0.919435	0.794508	0	0	0.0955151	-0.355869	0.578671	0.720078	0.712523	0	0
0.79	-0.118207	1.46196	-1.34641	0.493634	0.669381	1.04274	-0.257125	-0.0470739	-0.143485	0.586202	-0.227555	0	0	0.141323	-0.0806918	-0.0866388	0.0642124	-0.143163	0	0	-0.40399	0.0118904	0.201438	0.0036335	-0.60854	0.695076	0.918352	0.797772	0	0	0.0918515	-0.357447	0.57757	0.722703	0.712428	0	0
0.8	-0.110542	1.46122	-1.35821	0.497136	0.65752	1.04131	-0.263678	-0.0532047	-0.142027	0.595268	-0.236032	0	0	0.142289	-0.0798739	-0.0872127	0.101469	-0.129877	0	0	-0.402135	0.00910587	0.204674	-0.0020028	-0.605491	0.691028	0.916425	0.801297	0	0	0.0877931	-0.359345	0.577764	0.724761	0.713273	0	0
0.81	-0.094764	1.46108	-1.37613	0.500931	0.64515	1.03991	-0.270188	-0.0604771	-0.143888	0.604614	-0.246486	0	0	0.142606	-0.0767402	-0.0867318	0.132827	-0.11819	0	0	-0.398502	0.00559867	0.206086	-0.00806493	-0.600492	0.68786	0.911851	0.804984	0	0	0.0834039	-0.361871	0.579346	0.725558	0.714888	0	0
0.82	-0.0716842	1.4589	-1.40264	0.504762	0.632891	1.03889	-0.277093	-0.0689771	-0.142677	0.616206	-0.258973	0	0	0.139291	-0.0722265	-0.0882816	0.154112	-0.114743	0	0	-0.397684	0.00134962	0.208291	-0.0133068	-0.596581	0.6855	0.908168	0.80867	0	0	0.0794703	-0.363625	0.579921	0.726304	0.714963	0	0
0.83	-0.0434998	1.4555	-1.43487	0.508609	0.620741	1.03826	-0.283676	-0.0783265	-0.138341	0.629393	-0.274353	0	0	0.133729	-0.0667863	-0.0897015	0.167865	-0.12224	0	0	-0.398949	-0.0036653	0.210562	-0.0173911	-0.59298	0.683974	0.904606	0.812514	0	0	0.0762022	-0.365071	0.580292	0.726324	0.714852	0	0
0.84	-0.0133047	1.45366	-1.46812	0.512551	0.608558	1.03776	-0.286818	-0.0883509	-0.134567	0.644969	-0.292969	0	0	0.129215	-0.0608834	-0.0873053	0.17892	-0.137275	0	0	-0.398802	-0.00936419	0.21158	-0.0203051	-0.587558	0.683008	0.89824	0.815786	0	0	0.0734654	-0.366181	0.580705	0.72426	0.715358	0	0
0.85	0.0187326	1.45307	-1.50236	0.516723	0.596321	1.03736	-0.287118	-0.0991328	-0.131857	0.662563	-0.312056	0	0	0.12492	-0.0547783	-0.0825945	0.188886	-0.152624	0	0	-0.397221	-0.0152612	0.211538	-0.0222676	-0.58126	0.683181	0.889744	0.817935	0	0	0.0709719	-0.366116	0.58043	0.720137	0.715444	0	0
0.86	0.0511695	1.45355	-1.53676	0.521159	0.58404	1.03701	-0.28393	-0.110693	-0.129183	0.683232	-0.335448	0	0	0.12074	-0.0486902	-0.0778029	0.197562	-0.166431	0	0	-0.393909	-0.0208512	0.211004	-0.0233553	-0.574642	0.68529	0.879181	0.819922	0	0	0.0688385	-0.364828	0.581015	0.713492	0.716241	0	0
0.87	0.0801127	1.45468	-1.56654	0.52583	0.571789	1.03675	-0.278546	-0.121559	-0.125956	0.705201	-0.358338	0	0	0.117589	-0.0432905	-0.0722692	0.20683	-0.176918	0	0	-0.390075	-0.0253154	0.209547	-0.0240766	-0.568293	0.688205	0.868333	0.821294	0	0	0.0671167	-0.362708	0.582106	0.705459	0.716934	0	0
0.88	0.107726	1.45702	-1.59344	0.530659	0.559543	1.03665	-0.269727	-0.131895	-0.123887	0.729692	-0.387174	0	0	0.116637	-0.0385287	-0.0656145	0.218743	-0.186383	0	0	-0.384621	-0.0290975	0.207084	-0.0237947	-0.560665	0.692808	0.854498	0.822737	0	0	0.0662873	-0.359857	0.584249	0.695185	0.717521	0	0
0.89	0.133611	1.45945	-1.6175	0.535474	0.547435	1.03694	-0.258589	-0.141345	-0.121824	0.756013	-0.420857	0	0	0.11712	-0.0347525	-0.0590211	0.234861	-0.192798	0	0	-0.379383	-0.0323782	0.203865	-0.0220506	-0.552033	0.698715	0.838481	0.824065	0	0	0.0667259	-0.356676	0.587517	0.683581	0.717896	0	0
0.9	0.15633	1.46084	-1.63812	0.540132	0.535497	1.03777	-0.246047	-0.149852	-0.119138	0.783689	-0.461249	0	0	0.117887	-0.0322931	-0.0530563	0.256081	-0.194782	0	0	-0.375731	-0.0353323	0.200505	-0.0186783	-0.54292	0.705417	0.821142	0.824545	0	0	0.0684197	-0.353696	0.592174	0.671782	0.718511	0	0
0.91	0.171702	1.46189	-1.65097	0.544684	0.523785	1.03901	-0.231319	-0.156618	-0.115164	0.81201	-0.511698	0	0	0.119703	-0.0315064	-0.0492608	0.281605	-0.191666	0	0	-0.373003	-0.0373517	0.197195	-0.0139871	-0.534177	0.713572	0.803432	0.824328	0	0	0.071125	-0.3507	0.597656	0.660067	0.718491	0	0
0.92	0.179812	1.46151	-1.65693	0.549156	0.512365	1.04073	-0.216023	-0.161878	-0.108829	0.840832	-0.560196	0	0	0.119278	-0.031739	-0.0506311	0.305923	-0.186997	0	0	-0.373379	-0.0384932	0.194374	-0.00900327	-0.527655	0.721072	0.789015	0.823621	0	0	0.0743527	-0.347652	0.602271	0.650356	0.717451	0	0
